<?xml version="1.0" standalone="no"?>
<!DOCTYPE svg PUBLIC "-//W3C//DTD SVG 20010904//EN"
 "http://www.w3.org/TR/2001/REC-SVG-20010904/DTD/svg10.dtd">
<svg version="1.0" xmlns="http://www.w3.org/2000/svg"
 width="512.000000pt" height="512.000000pt" viewBox="0 0 512.000000 512.000000"
 preserveAspectRatio="xMidYMid meet">

<g transform="translate(0.000000,512.000000) scale(0.100000,-0.100000)"
fill="#000000" stroke="none">
<path d="M0 2560 l0 -2560 2560 0 2560 0 0 2560 0 2560 -2560 0 -2560 0 0
-2560z m2628 1391 c308 -178 711 -325 1074 -391 l66 -12 8 -76 c9 -100 -2
-394 -20 -552 -92 -766 -452 -1325 -1118 -1735 l-77 -48 -73 44 c-229 135
-464 332 -620 518 -368 439 -539 984 -526 1676 l3 170 85 17 c415 86 733 199
1020 366 58 33 106 61 108 61 2 1 34 -16 70 -38z"/>
<path d="M2465 3640 c-186 -103 -495 -221 -759 -290 l-89 -24 6 -177 c25 -727
294 -1248 841 -1629 74 -51 93 -60 110 -52 12 5 69 44 129 86 237 169 439 403
571 664 137 268 209 572 223 938 l6 171 -74 18 c-118 28 -404 123 -518 172
-57 24 -159 72 -225 106 -67 34 -123 63 -126 64 -3 1 -45 -20 -95 -47z m271
-271 c-25 -96 -68 -264 -96 -374 -28 -110 -53 -208 -56 -217 -5 -16 11 -18
205 -20 l211 -3 -306 -459 c-358 -538 -394 -591 -394 -581 0 5 22 92 49 194
72 269 151 580 151 591 0 6 -88 11 -214 12 l-213 3 351 517 c193 284 352 515
354 513 2 -1 -17 -81 -42 -176z"/>
</g>
</svg>
