<svg xmlns="http://www.w3.org/2000/svg" version="1.1" xmlns:xlink="http://www.w3.org/1999/xlink" viewBox="0 0 200 200"><rect width="200" height="200" fill="url('#gradient')"></rect><defs><linearGradient id="gradient" gradientTransform="rotate(45 0.5 0.5)"><stop offset="0%" stop-color="#c3ffef"></stop><stop offset="100%" stop-color="#353e3c"></stop></linearGradient></defs><g><g fill="#579f97" transform="matrix(7.340501792114695,0,0,7.340501792114695,8.907144708338606,152.1220512834501)" stroke="#567773" stroke-width="0.4"><path d="M0.17-4.80L3.58-4.80Q3.66-2.42 6.04-2.42L6.04-2.42Q7.27-2.42 7.89-3.19Q8.51-3.96 8.62-5.79L8.62-5.79L4.70-5.79L4.70-8.44L8.62-8.44Q8.49-10.20 7.85-10.98Q7.22-11.77 6.09-11.77L6.09-11.77Q4.83-11.77 4.21-11.19Q3.59-10.61 3.55-9.30L3.55-9.30L0.15-9.30Q0.36-11.69 1.93-13.05Q3.51-14.41 6.09-14.41L6.09-14.41Q7.87-14.41 9.23-13.57Q10.60-12.73 11.33-11.16Q12.07-9.58 12.07-7.48L12.07-7.48L12.07-6.71Q12.07-3.45 10.46-1.62Q8.85 0.21 6.04 0.21L6.04 0.21Q4.36 0.21 3.04-0.42Q1.73-1.04 0.99-2.17Q0.24-3.31 0.17-4.80L0.17-4.80ZM24.67-14.22L24.67-11.57L20.40-11.57L20.40 0L16.97 0L16.97-11.57L12.78-11.57L12.78-14.22L24.67-14.22Z"></path></g></g></svg>