<?xml version="1.0" standalone="no"?>
<!DOCTYPE svg PUBLIC "-//W3C//DTD SVG 20010904//EN"
 "http://www.w3.org/TR/2001/REC-SVG-20010904/DTD/svg10.dtd">
<svg version="1.0" xmlns="http://www.w3.org/2000/svg"
 width="192.000000pt" height="192.000000pt" viewBox="0 0 192.000000 192.000000"
 preserveAspectRatio="xMidYMid meet">

<g transform="translate(0.000000,192.000000) scale(0.100000,-0.100000)"
fill="#000000" stroke="none">
<path d="M0 960 l0 -960 960 0 960 0 0 960 0 960 -960 0 -960 0 0 -960z m1024
501 c71 -40 168 -77 283 -107 54 -15 102 -31 106 -38 10 -13 1 -200 -14 -282
-30 -171 -106 -320 -226 -442 -68 -69 -191 -162 -213 -162 -22 0 -145 94 -215
165 -110 111 -171 220 -210 371 -18 71 -35 217 -35 300 l0 60 124 31 c86 21
155 46 223 81 54 27 104 50 112 51 7 0 37 -12 65 -28z"/>
<path d="M880 1345 c-36 -18 -111 -48 -167 -66 l-103 -33 0 -73 c0 -241 120
-473 309 -598 l41 -28 56 38 c169 116 279 326 291 554 l6 107 -91 27 c-50 15
-129 45 -174 67 -46 22 -87 39 -93 39 -5 0 -39 -16 -75 -34z m125 -165 c-19
-74 -35 -138 -35 -142 0 -4 34 -8 75 -10 l74 -3 -124 -187 c-69 -104 -127
-188 -129 -188 -1 0 11 53 29 118 18 64 35 129 39 144 l6 27 -80 3 -81 3 127
188 c70 103 129 186 130 184 2 -1 -12 -63 -31 -137z"/>
</g>
</svg>
